<svg xmlns="http://www.w3.org/2000/svg" width="122" height="31.6" viewBox="0 0 122 31.6" role="img" aria-label="Baril Coatings"><defs><style>.bc-logo{fill:#ffffff}</style></defs><g><g><path class="bc-logo" d="M605,1208.19h-5.71v19.3H605Zm4.09,0v19.3h14.56v-4.8h-8.85v-14.5Zm-20.18,6.9a1.52,1.52,0,0,0,.39-1.1,1.74,1.74,0,0,0-.58-1.4,3.41,3.41,0,0,0-2.09-.5H584.2v3.9h2.38a6.71,6.71,0,0,0,1.52-.3,2.13,2.13,0,0,0,.85-.6m7.52,12.4H590.1l-3.05-5.9a4.12,4.12,0,0,0-1-1.5,2.23,2.23,0,0,0-1.42-.4h-.48v7.8h-5.71v-19.3h9.52a13.19,13.19,0,0,1,4,.5,4.2,4.2,0,0,1,2.28,1.8,5.67,5.67,0,0,1,.86,3.1,5.26,5.26,0,0,1-.67,2.8,5.49,5.49,0,0,1-1.81,1.9,6.31,6.31,0,0,1-2,.8,8.37,8.37,0,0,1,1.52.7l1,1a5.18,5.18,0,0,1,.76,1.2Zm-48.53-4.7a2.07,2.07,0,0,0,.57-1.5,1.86,1.86,0,0,0-.57-1.4,3.43,3.43,0,0,0-2.09-.5H543v3.9h2.85c1,0,1.72-.1,2.1-.5m-5-7.1h2.47a2.65,2.65,0,0,0,1.81-.5,1.65,1.65,0,0,0,.48-1.4,1.78,1.78,0,0,0-.48-1.3,2.89,2.89,0,0,0-1.81-.5H543Zm10.37,3.2a4.58,4.58,0,0,1,.95,3.1,5.18,5.18,0,0,1-.66,2.7,5.68,5.68,0,0,1-1.81,1.9,5.23,5.23,0,0,1-2.19.6,18.57,18.57,0,0,1-2.57.3h-9.8v-19.3h10.66a5.73,5.73,0,0,1,4.09,1.4,4.61,4.61,0,0,1,1.43,3.4,4.51,4.51,0,0,1-1.05,2.9,5,5,0,0,1-2,1.3,5.18,5.18,0,0,1,3,1.7m14.09,1.2-2-6.9-2,6.9Zm8.08,7.4h-6l-.94-3.2h-6.47l-.86,3.2h-5.8l6.94-19.3h6.19Zm-46.72-2-.29.3-.19.4-.28.3-.29.1v.8l-.28.3v.7h.28l.29-.4.19-.3v-.5l.1-.2.1-.4.1-.1v-.2l.28-.2Zm-13.51-20,.47-.3.38-.2h1.15l.38-.1h-.38l-.1-.1.1-.2.28.1h.19l.1-.1-.19-.1h.19v-.2l-.1-.1h.48v-.1l.19-.2-.19-.2.19-.2v-.3h.1l.19-.1.19-.1h.19v-.1h-.86l-.1.1h-.38l-.66-.3h-.48l-.19-.1h-.19l-.86.1-.67.3-.66.2-1,.2-.57.1-.38.2-.29.1-.37.2-.57.3H511l-1,.5.47.1.67-.2h.57l.1.1v.2h.38l.1.1v.1l-.1.2.29-.1.1.1-.29.1-.38.3.38.5.1.2v.5h.48l.19.1.1.1.36-.2.1-.1.1-.3.19-.3.28-.3.19-.2h.48Zm-4.19,4.6H511l.1-.2h-.19v-.2l-.28.1v-.1h-.19l.28-.4-.28.1-.58.9h.19l.48-.1v.1h.1l.19-.1-.1.2h.1Zm8-3-.19.3-.19.2.19.2h.1l-.1.1h.29l.1.3v.1h-.1l-.1-.1v.1l.1.2H519l.1.1.1.1v.1l-.1.1-.19.1h.47l.19-.1h.67l.28-.2v-.2l-.19-.1-.19-.1-.1-.2-.1-.2-.19-.1-.19-.1.19-.2v-.2l-.19-.1v-.2h-.18Zm-.38,1.4h.19v-.7h-.47l-.1.2h-.1l-.19.1-.1.1.1.2-.1.1-.1.1.1.2h.38l.1-.2h.28Zm-1.14-2.3-.1-.1h-.1l-.27-.1h-.67v-.2l-.19-.2-.1.1h-.1l.19.1v.3h-.1l-.1-.1h-.1l.1.1h.1v.2h.19l.19.2.19.1.28-.1.29.1.19-.3v-.1Zm-10.37,11.7-.1-.2-.29-.1-.19.1h-.19l.1.1.1.1v.1h-.29l.19.1h.29l.38-.1Zm-.86-.3-.47-.5-.19-.1h-.48l-.28.2-.1.1h.1l.1.1h.19l.28-.2.1.3.19.1.19-.1.1.1Zm-.66-.9.19.3.19.1h.1v-.2l.1-.1v-.2h-.1l-.1-.1h.1v-.2H506v.4h-.1v-.4h-.1Zm15.89-4.6h.29v-.4h-.19v.2Zm.86.6h.19l.19.2H523v-.1l-.19-.1-.1-.2h-.29v.2Zm2.19.6h.57l-.29-.1-.28-.1Zm1.71.3h.19l.19-.1v-.2h-.19l-.19.2Zm5.42,5.3c-.57,8.2-7,14.7-15,14.7-8.28,0-15-7.1-15-15.8a18.9,18.9,0,0,1,.48-4.1l-.1.5.1.2.19.3.1.3v.9l-.1.3.1.2v.4l.1.2h.1l-.1-.2v-.8l.1.3v.3l.1.3.1.2.1.3v.3l.1.3.38.4.19.1h.28l.1.2v.3h.29l.28.3.1.2v.4l.1.3.29.2.19.2h.1v-.1h.1l.19.2.1.4v.3l-.1.3,0,.3-.19.3-.1.4.1.3v.1l-.1.1.1.2v.1l-.1.1.29.5.19.5.1.5.28.5.58.7.47.6.1.1v.8l.1.1v.2l-.1.2.19.2v.8l.1.1.1.2v.1l-.1.2.1.1.19.1v.3l.1.2.48.4.19.2.19.2h.38v-.2l.1-.1-.19-.2h.25v-.1H510l.19-.2-.19-.2h.28l.19.1.19-.2.1-.3H511v-.3l.19-.1h.1l-.1-.4.1-.4h.18l.38-.3.48.1v-.2l.1-.1.19-.1-.1-.2.19-.3v-.2l.1-.1-.1-.1.1-.3v-.8l.66-.9v-1.1l-.38.1-.85-.7h-.19l-.19-.1-.19-.1h-.1l-.19-.3-.48-.2h0l-.28-.7-.29-.1-.19-.5-.38-.4h-.48l-.19-.1-.28-.7-.1-.2-.38-.1.19-.3h-.38l-.19-.1-.19.3-.19-.1h-.38v-.3h-.1l-.1-.3-.1.1v.3h-.1v-.3l-.29.2-.38.2-.19.3-.1.2-.16-.2h-.19l-.19.2-.19-.2-.1-.3.1-.4.1-.1-.19-.3.19-.2v-.2H505l-.1-.2-.19.1h-.29v-.1l.1-.3v-.4l.1-.2v-.4h-.2l-.19.2-.1.5-.29.2-.28-.3-.1-.4v-.9l.1-.3.38-.6.29-.1.19.1h.19l.19-.1v-.2l.1-.1h.19l.28.2.1.3v.4l-.1.3h.19l.19-.3.1-.6-.19-.4.19-.4.28-.3v-.2h.29v-.2h.19l.1-.2h.19v-.5l.19-.3v-.2l.19-.2v-.2l.47-.3.19.1v-.3l-.1.1-.1-.2.38-.4.19-.1.1-.2.29-.1.28.1.29-.1.19-.1h.19l.19-.2h-.1v-.3l-.28.3-.19.1h-.19l.1-.1.19-.1H509l.1-.2-.19.1-.1-.1H509l.1-.2v-.1h-.19l-.48.3h-.1l.29-.3.57-.3h.38l.48-.1.1-.3.75-.3-.1-.2.1-.2h-.19v-.2h-.38l-.38-.6v-.4h-.1l-.38.4-.19.2h-.1l-.19-.1-.1-.1.1-.2h-.19v-.2h-.19l-.29.1-.1.1h-.19l-.19.2-.1.1v.1h.1v.1l-.27.3h.28l-.1.4-.38.3-.19.2v.4l-.1.2-.1.1h-.1l-.1-.2h.1v-.2h-.1v-.2l.1-.1h-.19l-.19.1-.19-.1h-.1l-.1-.1h-.19l-.1.1-.1-.2-.05-.1.28-.4.48-.4.29-.4.38-.3-.29.3H507l.29-.3h.18l.1-.1v-.1h-.19l.1-.2.38-.2h.19v.3h.86l.19.1h.28l.29-.1.1-.1-.1-.1H510v-.1l.1-.1v-.1l-.19-.1v-.1l.1-.1.29.1.19.1.1-.1h.19l.19-.2v-.2h-.31l-.28-.1h-.29v-.4l-.19.1h-.28l-.19-.1-.19.1-.1-.2-.57.2-.1-.2h0l.38-.1.19-.2.58-.3.1-.2.48-.2h.1l.28-.3.67-.3.47-.2-.95.1-.76.3-.29.1-.19.1-.28.2-.19.2-.57.2-.19.1-.29.3v.1l-.29.1-.19.1-.29.2.1.1h.18l.1-.2.38-.1-.28.2-.39.2-.47.2-.1.1h.38v.1l-.38.1-.29.3h-.19l-.1.2v.1h.1l.19-.1-.1.4-.28.1h-.28l.1-.4h-.19a14.57,14.57,0,0,1,21.79-.4l-.29-.1-.29-.1.1.3h-.1l-.1-.1-.19-.1v.4l-.28-.2H526l.19.2H526l-.19-.4-.19-.2.38.1h.19l.19-.1v-.1l-.28-.2-.28-.1-.58-.2-.28-.1-.1-.2-.29-.2h-.28l-.29-.1-.28-.1h-.19l-.29.1-.19.1-.19-.1h-.19l-.28.1v.1l.28.1-.1.1h-.28l-.28.4-.19.1-.29-.1-.28.2-.38.2v.3l.1.2.19.3.47.1.38-.2.48.6-.1.1h-.19l-.1.1-.1-.2v-.3h-.1l-.19.2h-.19v.2l.1.1.1.3-.38.1h-.57l.1.2-.1.1-.19.2h-.19v.2l-.19.2-.19.1h-.1l-.19-.1-.1.1v.1l-.19-.1h-.19l-.1.2.1.1.1.1.1.2.19.2-.1.2v.3l-.1.3h-.19l-.38-.1-.38-.1-.1-.1-.19.2-.29.1v.1l.1.5-.28.4.1.2.1.5.28-.1.29.2.19-.1.47-.1h.39l.19-.3v-.3l.1-.4.38-.2.38-.3.1-.2h.65l.38-.2.29.2.1.2.28.3.29.2.28.2.19.1.1.2-.1.3.1.1.29-.3-.1-.3h.19v-.2l-.39-.2-.38-.3-.19-.2-.28-.2v-.3h.28l.19.1.1.3.19.2h.29l.28.3.29.2v.7l.19.1.19.2.1.3.1-.1.19-.4-.29-.3.1-.2.19-.1H525l.19.1-.19.2.1.3.19.2.28.3.19.1.29-.1.19.2.19.1.19-.2.19.1.19.2.1.3-.1.2-.29.6h-.28l-.29-.1-.38.1h-.28l-.29-.1-.19.1-.19-.2-.19-.1-.19-.3-.28.1-.19.2v.4l-.38-.1-.29-.1-.28-.1.1-.2-.29-.2-.38-.1h-.31l-.29-.2.29-.2-.1-.2v-.1l.1-.3h-.29l-.57.1-.38.1-.28-.1-.29-.1-.47.2-.38.3-.86-.3-.1.3-.19.2-.48.2-.28.3v.3l-.1.5-.29.2-.47.2v.2l-.29.2-.19.2-.28.4-.1.4v.7l.1.4.1.4-.1.5-.1.3-.1.2.1.3-.1.2v.3l.19.3.38.2.19.1v.6l.28.2.38.1v.2l.39.2.28.2.38-.1.29-.1.28-.1.48.2.38-.2.1-.2.38-.2.28-.1.19.1.1.3.1.3.39-.1.19-.1.19.2.1.3-.19.3-.19.7v.3l.1.3.19.2.19.2v.6l.1.2.1.3-.1.3.1.3v.2l-.19.4-.1.5-.19.7.1.3.38.8-.1.4v.5l.19.5.19.3-.1.4.28.2.38-.2.67-.1.38-.2.76-.7.48-.8.28-.4.38-.3v-.4l.19-.6.57-.3.29-.6.19-.6.1-.9-.1-.8.1-.6.47-.6.77-.8.57-1,.19-.6.1-.6h-1l-.19-.2-.28-.6-.19-.8-.19-.7.38.5.29.5.1.8,1-.6.95-1,.39-.8-.1-.4-.39-.3-.1-.3-.28.2-.29-.2.1-.2-.38-.1v-.2l-.19-.3.1-.3.19.2.29.5.38.3.28-.1.1.2.29.2.1.1h.48l.19.1.1.3.28.4v.8l.1,1.2Z" transform="translate(-501.69 -1201.99)"/><path class="bc-logo" d="M528.53,1213.19l-.1-.6v-.4l-.3-.1v-.8l.1-.1h.2l-.1.3.2.4.4.2v.7l.3.6h-.3Z" transform="translate(-501.69 -1201.99)"/><path class="bc-logo" d="M525.08,1211.49l.1-.2v-.2l.1-.1.3-.2h.4l.2.3h.4l.2.1h.3l.2.2v.3l.3.2-.1.1-.3.2-.4-.1-.4-.3H526l-.4.1-.2-.2-.2.2Z" transform="translate(-501.69 -1201.99)"/></g></g></svg>
