<svg xmlns="http://www.w3.org/2000/svg" viewBox="0 0 24 16"><rect width="24" height="16" fill="#B22234"/><rect y="1.231" width="24" height="1.231" fill="#FFFFFF"/><rect y="3.692" width="24" height="1.231" fill="#FFFFFF"/><rect y="6.154" width="24" height="1.231" fill="#FFFFFF"/><rect y="8.615" width="24" height="1.231" fill="#FFFFFF"/><rect y="11.077" width="24" height="1.231" fill="#FFFFFF"/><rect y="13.538" width="24" height="1.231" fill="#FFFFFF"/><rect width="9.6" height="8.615" fill="#3C3B6E"/><circle cx="0.96" cy="1.077" r="0.42" fill="#FFFFFF"/><circle cx="2.88" cy="1.077" r="0.42" fill="#FFFFFF"/><circle cx="4.8" cy="1.077" r="0.42" fill="#FFFFFF"/><circle cx="6.72" cy="1.077" r="0.42" fill="#FFFFFF"/><circle cx="8.64" cy="1.077" r="0.42" fill="#FFFFFF"/><circle cx="0.96" cy="3.231" r="0.42" fill="#FFFFFF"/><circle cx="2.88" cy="3.231" r="0.42" fill="#FFFFFF"/><circle cx="4.8" cy="3.231" r="0.42" fill="#FFFFFF"/><circle cx="6.72" cy="3.231" r="0.42" fill="#FFFFFF"/><circle cx="8.64" cy="3.231" r="0.42" fill="#FFFFFF"/><circle cx="0.96" cy="5.384" r="0.42" fill="#FFFFFF"/><circle cx="2.88" cy="5.384" r="0.42" fill="#FFFFFF"/><circle cx="4.8" cy="5.384" r="0.42" fill="#FFFFFF"/><circle cx="6.72" cy="5.384" r="0.42" fill="#FFFFFF"/><circle cx="8.64" cy="5.384" r="0.42" fill="#FFFFFF"/><circle cx="0.96" cy="7.538" r="0.42" fill="#FFFFFF"/><circle cx="2.88" cy="7.538" r="0.42" fill="#FFFFFF"/><circle cx="4.8" cy="7.538" r="0.42" fill="#FFFFFF"/><circle cx="6.72" cy="7.538" r="0.42" fill="#FFFFFF"/><circle cx="8.64" cy="7.538" r="0.42" fill="#FFFFFF"/></svg>