<?xml version="1.0" encoding="UTF-8"?>
<svg xmlns="http://www.w3.org/2000/svg" viewBox="214 92 161 183">
<g fill="#3F9D52" fill-rule="nonzero">
<path d="M 267.589844 166.4375 L 267.589844 257.039062 C 281.484375 264.9375 293.238281 269.242188 294.128906 269.5625 L 294.128906 269.582031 C 294.128906 269.582031 294.144531 269.574219 294.15625 269.570312 C 294.164062 269.574219 294.183594 269.582031 294.183594 269.582031 L 294.183594 269.5625 C 295.273438 269.167969 312.730469 262.777344 330.425781 251.097656 Z M 267.589844 166.4375 "/>
<path d="M 242.472656 127.699219 L 268.296875 127.699219 L 322.957031 204.113281 L 322.957031 97.957031 L 230.113281 97.957031 L 220.050781 198.585938 C 220.726562 214.742188 230.359375 228.40625 242.472656 239.300781 Z M 242.472656 127.699219 "/>
<path d="M 358.195312 97.957031 L 348.070312 97.957031 L 348.070312 237.230469 C 359.113281 226.691406 367.625 213.734375 368.261719 198.585938 Z M 358.195312 97.957031 "/>
</g>
</svg>
