<?xml version="1.0" encoding="UTF-8"?>
<svg id="Laag_1" data-name="Laag 1" xmlns="http://www.w3.org/2000/svg" width="200" height="61.75" viewBox="0 0 200 61.75">
  <defs>
    <style>
      .cls-1 {
        fill: #fff;
        stroke-width: 0px;
      }
    </style>
  </defs>
  <g>
    <path class="cls-1" d="M88.4,32.46h-7.99V2.46h17.75v6.56h-9.79v5.7h9.01v6.46h-9.01v11.3h.01v-.02Z"/>
    <path class="cls-1" d="M124.77,20.78c0,3.8-1.05,6.74-3.04,8.94-2.09,2.09-4.94,3.22-8.54,3.22s-6.36-1.05-8.46-3.22-3.12-5.12-3.12-8.84,1.05-6.74,3.04-8.84c2.09-2.09,4.94-3.12,8.64-3.12s4.27.47,6.09,1.42c1.7.95,3.12,2.37,4.09,4.17s1.42,3.9,1.42,6.36l-.1-.1h-.01ZM109.67,20.78c0,2,.27,3.51.75,4.56.57,1.05,1.42,1.61,2.65,1.61s2.09-.57,2.65-1.61c.47-1.05.75-2.56.75-4.56s-.27-3.51-.75-4.46-1.42-1.52-2.65-1.52-2.09.47-2.65,1.52c-.57,1.05-.75,2.47-.75,4.46Z"/>
    <path class="cls-1" d="M143.37,8.82c.67,0,1.32,0,2,.2h.47l-.75,7.69c-.67-.2-1.52-.27-2.75-.27-1.7,0-3.04.37-3.8,1.22-.75.75-1.22,2-1.22,3.42v11.39h-7.99V9.3h5.99l1.22,3.7h.37c.67-1.22,1.61-2.17,2.75-2.95,1.22-.75,2.37-1.15,3.61-1.15l.1-.1h0v.02Z"/>
    <path class="cls-1" d="M160.47,26.57c1.05,0,2.37-.27,3.9-.75v5.89c-1.05.47-2.09.75-3.12.95-.95.2-2.09.27-3.42.27-2.65,0-4.65-.67-5.79-2s-1.8-3.32-1.8-6.09v-9.59h-2.85v-3.22l3.61-2.56,2.09-4.84h5.22v4.65h5.7v5.99h-5.7v9.01c0,1.52.75,2.27,2.17,2.27h-.01Z"/>
    <path class="cls-1" d="M168.25,3.5c0-1.22.37-2.09,1.05-2.65.67-.57,1.7-.85,3.22-.85s2.56.27,3.22.95c.67.67,1.05,1.52,1.05,2.65,0,2.37-1.42,3.51-4.27,3.51s-4.27-1.15-4.27-3.51v-.1ZM176.42,32.46h-7.99V9.3h7.99v23.26-.1Z"/>
    <path class="cls-1" d="M199.98,25.35c0,2.47-.85,4.36-2.56,5.61-1.7,1.22-4.17,1.9-7.31,1.9s-3.22,0-4.46-.27c-1.22-.2-2.56-.57-3.9-1.05v-6.46c1.22.57,2.56,1.05,4.09,1.32,1.52.37,2.85.57,3.99.57,1.7,0,2.56-.37,2.56-1.22s-.27-.75-.75-1.15c-.47-.27-1.9-.95-4.27-1.9-2.09-.85-3.61-1.9-4.46-2.95-.85-1.15-1.22-2.56-1.22-4.27s.85-3.8,2.47-5.04c1.7-1.22,3.99-1.8,7.11-1.8s2.95.2,4.27.47c1.32.37,2.75.85,4.17,1.42l-2.17,5.12c-1.05-.47-2.17-.85-3.42-1.22-1.22-.37-2.17-.47-2.95-.47-1.32,0-2,.27-2,.95s.2.75.67,1.05,1.8.85,3.99,1.7c1.61.67,2.85,1.32,3.61,2s1.42,1.42,1.8,2.27.57,1.9.57,3.12l.2.27h-.02Z"/>
  </g>
  <g>
    <path class="cls-1" d="M86.5,55.82c-2,0-3.51-.57-4.56-1.8s-1.61-2.95-1.61-5.12.57-4.09,1.61-5.31c1.15-1.22,2.65-1.9,4.65-1.9s1.32,0,2,.2c.67.1,1.15.27,1.52.47l-.67,1.7c-.47-.2-.95-.37-1.52-.47s-1.05-.2-1.42-.2c-2.75,0-4.17,1.8-4.17,5.31s.37,2.95,1.05,3.9,1.7,1.32,3.04,1.32,2.27-.27,3.51-.75v1.8c-.95.47-2.09.67-3.42.67v.2h.01v-.03Z"/>
    <path class="cls-1" d="M104.92,48.71c0,2.17-.57,3.99-1.7,5.22s-2.65,1.9-4.65,1.9-2.27-.27-3.22-.85-1.7-1.42-2.17-2.47-.75-2.27-.75-3.8c0-2.17.57-3.99,1.7-5.22s2.65-1.9,4.65-1.9,3.42.67,4.56,1.9c1.15,1.22,1.7,2.95,1.7,5.12l-.1.1h-.01ZM94.58,48.71c0,1.7.37,3.04,1.05,3.99s1.7,1.32,3.04,1.32,2.37-.47,3.04-1.32c.67-.95,1.05-2.27,1.05-3.99s-.37-3.04-1.05-3.99c-.67-.85-1.7-1.32-3.12-1.32s-2.37.47-3.04,1.32-1.05,2.17-1.05,3.99h.1-.01Z"/>
    <path class="cls-1" d="M116.99,55.54l-.37-1.9h-.1c-.67.85-1.32,1.42-2,1.7s-1.52.47-2.56.47-2.37-.37-3.12-1.05-1.15-1.7-1.15-2.95c0-2.75,2.17-4.17,6.56-4.36h2.27v-.95c0-1.05-.2-1.9-.67-2.37s-1.22-.75-2.17-.75-2.37.37-3.9,1.05l-.67-1.61c.67-.37,1.42-.67,2.17-.85s1.61-.27,2.37-.27c1.61,0,2.85.37,3.61,1.05.75.75,1.15,1.9,1.15,3.42v9.31h-1.52l.1.1v-.04h.01ZM112.34,54.11c1.32,0,2.27-.37,3.04-1.05s1.15-1.7,1.15-2.95v-1.22h-2.09c-1.61.2-2.85.37-3.51.85s-1.05,1.15-1.05,2.09.2,1.32.67,1.7,1.05.57,1.9.57h-.11Z"/>
    <path class="cls-1" d="M127.15,54.11h1.05c.37,0,.57-.1.85-.2v1.61c-.2.1-.57.2-.95.27-.47,0-.85.1-1.15.1-2.65,0-3.99-1.42-3.99-4.17v-8.06h-2v-.95l2-.85.85-2.95h1.22v3.12h3.99v1.61h-3.99v7.99c0,.85.2,1.42.57,1.9.37.47.95.67,1.61.67l-.1-.1h.03Z"/>
    <path class="cls-1" d="M131.51,38.26c0-.47.1-.85.37-1.05.2-.2.47-.27.85-.27s.57.1.85.37c.27.2.37.57.37,1.05s-.1.85-.37,1.05-.57.37-.85.37-.67-.1-.85-.37-.37-.57-.37-1.05v-.1ZM133.78,55.54h-2.09v-13.57h2.09v13.57Z"/>
    <path class="cls-1" d="M147.46,55.54v-8.84c0-1.15-.27-1.9-.75-2.47s-1.32-.85-2.37-.85-2.47.37-3.12,1.15-.95,2-.95,3.8v7.11h-2.09v-13.57h1.7l.37,1.9h.1c.37-.67,1.05-1.22,1.8-1.52.75-.37,1.61-.57,2.56-.57,1.61,0,2.85.37,3.7,1.15s1.22,2.09,1.22,3.8v8.94h-2.17Z"/>
    <path class="cls-1" d="M164.85,41.94v1.32l-2.56.27c.2.27.47.67.67,1.15s.27.95.27,1.61c0,1.32-.47,2.37-1.32,3.22-.95.75-2.17,1.22-3.8,1.22s-.75,0-1.15-.1c-.85.47-1.32,1.05-1.32,1.7s.2.67.47.85.85.27,1.61.27h2.37c1.52,0,2.56.27,3.42.95.75.67,1.15,1.52,1.15,2.75s-.57,2.65-1.8,3.42-2.95,1.15-5.31,1.15-3.12-.27-4.09-.95c-.95-.67-1.42-1.61-1.42-2.85s.27-1.52.75-2.17c.57-.57,1.22-1.05,2.27-1.22-.37-.2-.67-.37-.85-.75-.2-.27-.37-.75-.37-1.15s.1-.95.37-1.32c.27-.37.67-.75,1.22-1.05-.67-.27-1.22-.75-1.7-1.52s-.67-1.52-.67-2.37c0-1.52.47-2.65,1.32-3.42.85-.85,2.17-1.22,3.8-1.22s1.32,0,1.9.27h4.75v-.1.04ZM154.02,57.82c0,.75.27,1.32.95,1.7s1.52.57,2.65.57c1.7,0,3.04-.27,3.8-.75.85-.47,1.22-1.22,1.22-2.09s-.2-1.22-.67-1.52-1.32-.47-2.56-.47h-2.47c-.95,0-1.7.2-2.17.67s-.75,1.05-.75,1.9h.01ZM155.16,46.33c0,.95.27,1.7.75,2.17.57.47,1.32.75,2.27.75,2,0,3.04-.95,3.04-2.95s-1.05-3.04-3.04-3.04-1.7.27-2.27.75-.75,1.32-.75,2.27h0v.04Z"/>
    <path class="cls-1" d="M176.42,51.83c0,1.22-.47,2.27-1.42,2.95s-2.27,1.05-3.99,1.05-3.22-.27-4.17-.85v-1.9c.67.27,1.32.57,2.09.75s1.42.27,2.17.27c1.05,0,1.9-.2,2.47-.47s.85-.85.85-1.61-.2-.95-.67-1.32-1.32-.85-2.65-1.32c-1.22-.47-2.17-.85-2.65-1.22-.57-.37-.95-.75-1.22-1.22s-.37-.95-.37-1.61c0-1.15.47-2,1.32-2.65s2.17-.95,3.7-.95,2.95.27,4.27.85l-.75,1.7c-1.32-.57-2.56-.85-3.7-.85s-1.7.2-2.17.47-.75.75-.75,1.22,0,.67.27.95c.2.27.47.47.85.75s1.22.57,2.37,1.05c1.61.57,2.65,1.15,3.22,1.8s.85,1.32.85,2.27l.1-.1h-.02Z"/>
  </g>
  <path class="cls-1" d="M51.47,1.79l17.2,29.72-17.2,29.72H17.2L0,31.51,17.2,1.79h34.27ZM54.88,31.51c0-11.39-9.21-20.61-20.61-20.61S13.66,20.11,13.66,31.51s9.21,20.61,20.61,20.61,20.61-9.21,20.61-20.61"/>
  <polygon class="cls-1" points="34.57 47.56 26.78 47.56 26.78 18.31 44.06 18.31 44.06 24.67 34.57 24.67 34.57 30.18 43.31 30.18 43.31 36.55 37.51 36.55 34.57 47.56"/>
</svg>