<?xml version="1.0" encoding="UTF-8"?>
<svg id="Laag_1" data-name="Laag 1" xmlns="http://www.w3.org/2000/svg" width="122" height="37.71" viewBox="0 0 122 37.71">
  <defs>
    <style>
      .cls-1 {
        fill: #27448a;
      }

      .cls-1, .cls-2, .cls-3 {
        stroke-width: 0px;
      }

      .cls-2 {
        fill: #bd2a1b;
      }

      .cls-3 {
        fill: #2d4389;
      }
    </style>
  </defs>
  <g>
    <path class="cls-1" d="M53.93,19.81h-4.87V1.51h10.83v4h-5.97v3.48h5.5v3.94h-5.5s0,6.89,0,6.89Z"/>
    <path class="cls-1" d="M76.12,12.69c0,2.32-.64,4.11-1.85,5.45-1.27,1.27-3.01,1.97-5.21,1.97s-3.88-.64-5.16-1.97-1.91-3.13-1.91-5.39.64-4.11,1.85-5.39c1.27-1.27,3.01-1.91,5.27-1.91s2.61.29,3.71.87c1.04.58,1.91,1.45,2.49,2.55s.87,2.38.87,3.88l-.06-.06ZM66.91,12.69c0,1.22.17,2.14.46,2.78.35.64.87.98,1.62.98s1.27-.35,1.62-.98c.29-.64.46-1.56.46-2.78s-.17-2.14-.46-2.72-.87-.93-1.62-.93-1.27.29-1.62.93c-.35.64-.46,1.51-.46,2.72Z"/>
    <path class="cls-1" d="M87.47,5.39c.41,0,.81,0,1.22.12h.29l-.46,4.69c-.41-.12-.93-.17-1.68-.17-1.04,0-1.85.23-2.32.75-.46.46-.75,1.22-.75,2.09v6.95h-4.87V5.68h3.65l.75,2.26h.23c.41-.75.98-1.33,1.68-1.8.75-.46,1.45-.7,2.2-.7l.06-.06Z"/>
    <path class="cls-1" d="M97.9,16.22c.64,0,1.45-.17,2.38-.46v3.59c-.64.29-1.27.46-1.91.58-.58.12-1.27.17-2.09.17-1.62,0-2.84-.41-3.53-1.22s-1.1-2.03-1.1-3.71v-5.85h-1.74v-1.97l2.2-1.56,1.27-2.95h3.19v2.84h3.48v3.65h-3.48v5.5c0,.93.46,1.39,1.33,1.39Z"/>
    <path class="cls-1" d="M102.65,2.14c0-.75.23-1.27.64-1.62.41-.35,1.04-.52,1.97-.52s1.56.17,1.97.58c.41.41.64.93.64,1.62,0,1.45-.87,2.14-2.61,2.14s-2.61-.7-2.61-2.14v-.06ZM107.63,19.81h-4.87V5.68h4.87v14.19-.06Z"/>
    <path class="cls-1" d="M122,15.47c0,1.51-.52,2.66-1.56,3.42-1.04.75-2.55,1.16-4.46,1.16s-1.97,0-2.72-.17c-.75-.12-1.56-.35-2.38-.64v-3.94c.75.35,1.56.64,2.49.81.93.23,1.74.35,2.43.35,1.04,0,1.56-.23,1.56-.75s-.17-.46-.46-.7c-.29-.17-1.16-.58-2.61-1.16-1.27-.52-2.2-1.16-2.72-1.8-.52-.7-.75-1.56-.75-2.61s.52-2.32,1.51-3.07c1.04-.75,2.43-1.1,4.34-1.1s1.8.12,2.61.29c.81.23,1.68.52,2.55.87l-1.33,3.13c-.64-.29-1.33-.52-2.09-.75-.75-.23-1.33-.29-1.8-.29-.81,0-1.22.17-1.22.58s.12.46.41.64,1.1.52,2.43,1.04c.98.41,1.74.81,2.2,1.22s.87.87,1.1,1.39.35,1.16.35,1.91l.12.17Z"/>
  </g>
  <g>
    <path class="cls-1" d="M52.77,34.06c-1.22,0-2.14-.35-2.78-1.1-.64-.75-.98-1.8-.98-3.13s.35-2.49.98-3.24c.7-.75,1.62-1.16,2.84-1.16s.81,0,1.22.12c.41.06.7.17.93.29l-.41,1.04c-.29-.12-.58-.23-.93-.29s-.64-.12-.87-.12c-1.68,0-2.55,1.1-2.55,3.24s.23,1.8.64,2.38,1.04.81,1.85.81,1.39-.17,2.14-.46v1.1c-.58.29-1.27.41-2.09.41v.12Z"/>
    <path class="cls-1" d="M64.01,29.72c0,1.33-.35,2.43-1.04,3.19s-1.62,1.16-2.84,1.16-1.39-.17-1.97-.52c-.58-.35-1.04-.87-1.33-1.51s-.46-1.39-.46-2.32c0-1.33.35-2.43,1.04-3.19s1.62-1.16,2.84-1.16,2.09.41,2.78,1.16c.7.75,1.04,1.8,1.04,3.13l-.06.06ZM57.7,29.72c0,1.04.23,1.85.64,2.43s1.04.81,1.85.81,1.45-.29,1.85-.81c.41-.58.64-1.39.64-2.43s-.23-1.85-.64-2.43c-.41-.52-1.04-.81-1.91-.81s-1.45.29-1.85.81-.64,1.33-.64,2.43h.06Z"/>
    <path class="cls-1" d="M71.37,33.89l-.23-1.16h-.06c-.41.52-.81.87-1.22,1.04s-.93.29-1.56.29-1.45-.23-1.91-.64c-.46-.41-.7-1.04-.7-1.8,0-1.68,1.33-2.55,4-2.66h1.39v-.58c0-.64-.12-1.16-.41-1.45s-.75-.46-1.33-.46-1.45.23-2.38.64l-.41-.98c.41-.23.87-.41,1.33-.52s.98-.17,1.45-.17c.98,0,1.74.23,2.2.64.46.46.7,1.16.7,2.09v5.68h-.93l.06.06ZM68.53,33.02c.81,0,1.39-.23,1.85-.64.46-.41.7-1.04.7-1.8v-.75h-1.27c-.98.12-1.74.23-2.14.52s-.64.7-.64,1.27.12.81.41,1.04c.29.23.64.35,1.16.35h-.06Z"/>
    <path class="cls-1" d="M77.57,33.02h.64c.23,0,.35-.06.52-.12v.98c-.12.06-.35.12-.58.17-.29,0-.52.06-.7.06-1.62,0-2.43-.87-2.43-2.55v-4.92h-1.22v-.58l1.22-.52.52-1.8h.75v1.91h2.43v.98h-2.43v4.87c0,.52.12.87.35,1.16.23.29.58.41.98.41l-.06-.06Z"/>
    <path class="cls-1" d="M80.23,23.35c0-.29.06-.52.23-.64.12-.12.29-.17.52-.17s.35.06.52.23c.17.12.23.35.23.64s-.06.52-.23.64-.35.23-.52.23-.41-.06-.52-.23-.23-.35-.23-.64v-.06ZM81.62,33.89h-1.27v-8.28h1.27v8.28Z"/>
    <path class="cls-1" d="M89.96,33.89v-5.39c0-.7-.17-1.16-.46-1.51s-.81-.52-1.45-.52-1.51.23-1.91.7-.58,1.22-.58,2.32v4.34h-1.27v-8.28h1.04l.23,1.16h.06c.23-.41.64-.75,1.1-.93.46-.23.98-.35,1.56-.35.98,0,1.74.23,2.26.7s.75,1.27.75,2.32v5.45h-1.33Z"/>
    <path class="cls-1" d="M100.57,25.6v.81l-1.56.17c.12.17.29.41.41.7s.17.58.17.98c0,.81-.29,1.45-.81,1.97-.58.46-1.33.75-2.32.75s-.46,0-.7-.06c-.52.29-.81.64-.81,1.04s.12.41.29.52.52.17.98.17h1.45c.93,0,1.56.17,2.09.58.46.41.7.93.7,1.68s-.35,1.62-1.1,2.09-1.8.7-3.24.7-1.91-.17-2.49-.58c-.58-.41-.87-.98-.87-1.74s.17-.93.46-1.33c.35-.35.75-.64,1.39-.75-.23-.12-.41-.23-.52-.46-.12-.17-.23-.46-.23-.7s.06-.58.23-.81c.17-.23.41-.46.75-.64-.41-.17-.75-.46-1.04-.93s-.41-.93-.41-1.45c0-.93.29-1.62.81-2.09.52-.52,1.33-.75,2.32-.75s.81,0,1.16.17h2.9v-.06ZM93.96,35.28c0,.46.17.81.58,1.04.41.23.93.35,1.62.35,1.04,0,1.85-.17,2.32-.46.52-.29.75-.75.75-1.27s-.12-.75-.41-.93-.81-.29-1.56-.29h-1.51c-.58,0-1.04.12-1.33.41s-.46.64-.46,1.16ZM94.66,28.27c0,.58.17,1.04.46,1.33.35.29.81.46,1.39.46,1.22,0,1.85-.58,1.85-1.8s-.64-1.85-1.85-1.85-1.04.17-1.39.46-.46.81-.46,1.39Z"/>
    <path class="cls-1" d="M107.63,31.63c0,.75-.29,1.39-.87,1.8-.58.41-1.39.64-2.43.64s-1.97-.17-2.55-.52v-1.16c.41.17.81.35,1.27.46s.87.17,1.33.17c.64,0,1.16-.12,1.51-.29s.52-.52.52-.98-.12-.58-.41-.81-.81-.52-1.62-.81c-.75-.29-1.33-.52-1.62-.75-.35-.23-.58-.46-.75-.75s-.23-.58-.23-.98c0-.7.29-1.22.81-1.62s1.33-.58,2.26-.58,1.8.17,2.61.52l-.46,1.04c-.81-.35-1.56-.52-2.26-.52s-1.04.12-1.33.29-.46.46-.46.75,0,.41.17.58c.12.17.29.29.52.46s.75.35,1.45.64c.98.35,1.62.7,1.97,1.1s.52.81.52,1.39l.06-.06Z"/>
  </g>
  <path class="cls-2" d="M31.4,1.1l10.49,18.13-10.49,18.13H10.49L0,19.23,10.49,1.1h20.91ZM33.48,19.23c0-6.95-5.62-12.57-12.57-12.57s-12.57,5.62-12.57,12.57,5.62,12.57,12.57,12.57,12.57-5.62,12.57-12.57"/>
  <polygon class="cls-3" points="21.09 29.02 16.34 29.02 16.34 11.18 26.88 11.18 26.88 15.06 21.09 15.06 21.09 18.42 26.42 18.42 26.42 22.3 22.88 22.3 21.09 29.02"/>
</svg>