<svg id="Layer_1" data-name="Layer 1" xmlns="http://www.w3.org/2000/svg" width="204.92" height="32.12" viewBox="0 0 204.92 32.12"><defs><style>.cls-1{fill:#151413;stroke:#2E3E01;}</style></defs><g id="Group_7820" data-name="Group 7820"><path id="Path_8596" data-name="Path 8596" class="cls-1" d="M633.72,188.75l0,.3h0l.31.17-.1.08-.25.28-.44-.19-.41-.27h-.39l-.38.09-.28-.18-.19.18-.1-.34h0l.11-.23v-.18l.16-.13.22-.19h.47l.19.27v0H633l.25.15h.25ZM635,202.63l-.29.28-.23.39-.31.31-.26.13v.72l-.29.31v.73h.26l.26-.36.18-.26v-.49l.21-.33.08-.35.13-.05v-.2l.26-.18ZM621,183l.45-.26,0,0,.09-.05.14-.07.14-.07.32,0,.33,0h.25l.17,0,.18-.07.18-.07h-.37l-.06-.12.06-.09L623,182l.14.06.13.07.22,0,.14-.07-.18-.12v0h.18l.07-.1-.09-.11h.51v-.11l.15-.16-.24-.19.24-.17v-.37h.14l.2-.08.12-.06h.15v-.12h-.54l-.12.05h-.28l-.06.05-.06.05-.25-.11-.69-.28h-.52l-.22-.06h-.24l-.21,0-.67.1-.6.2-.71.25-1,.2L618,181l-.18.08-.18.08-.28.07-.4.23-.58.28h.21l-1.06.51.49.12.33-.08.33-.08h.39l.18,0,.07.06.06.06v.14l.39-.08.13.14v.14l-.12.16.29-.12.13.12-.3.14-.37.32.21.24.21.24.11.2v.52l.18,0,.17-.05.09.05.1,0,.18.07h.37v-.19l.05-.07.06-.06.09-.32.23-.28.14-.12.14-.13.2-.15h.29l.18,0Zm-4.32,4.49-.12,0,.06-.16h-.12l-.06-.2-.21.09v-.1l-.22,0,.3-.39-.3.12-.65.88h.16l.54-.07v.12h.11l.18-.1-.06.1h.14Zm8.25-2.95-.17.27-.18.19.22.2H625l-.1.14h.32l.08.3,0,.13-.1,0-.14-.09,0,.14.06.17H625l-.14.05.1.08.08.08,0,.1-.13.05-.14.12h.44l.18-.07h.22l.22,0h.32l.26-.23v-.18l-.21-.07-.16-.06-.1-.24-.1-.21-.2-.12-.18-.15.18-.16v-.16l-.19-.09v-.18h-.21Zm-.35,1.37.1,0v-.69h-.45l-.13.21H624l-.15.08-.13.12.13.17,0,.08-.08.07.13.16h.4l.06-.16h.21Zm-1.25-2.28-.15-.08-.07,0-.21-.06h-.51l-.07,0h-.12v-.17l-.16-.24-.14.1-.13,0,.17.1.07.11v.14H622l-.12-.1h-.16l.1.1h.08l0,.14,0,.06h.23l.21.22.2.08.33-.08.32.08.21-.3Zm-10.68,11.5-.14-.16-.28-.12-.24.07h-.09l.05.07.07.15v.09h-.2l.2.12h.29l.34-.07Zm-.89-.27-.5-.5-.16-.11,0,0-.23,0h-.25l-.3.16-.05.1h.14l.07.14h.24l.19-.07.1.29.23.11.16-.11.13.11Zm-.66-.84.15.17,0,0,.17.13h.1v-.17l.12-.07v-.18h-.1l-.09-.14.1,0,0-.23-.22.05v.37h-.06l0-.41-.13-.05v.05Zm16.42-4.59h.33v-.37h-.16v.19Zm.8.6h.25l.2.18H629v-.09l-.18-.09-.13-.18h-.32Zm2.34.62h.57l-.28-.09-.29-.09Zm1.75.34h.17l.22-.13v-.21h-.19l-.2.17Zm5.54,5.23a15.55,15.55,0,1,1-30.42-5.52l0,.3-.1.6.06.23.2.33.06.14,0,.46,0,.32,0,.12-.07.28.08.2,0,.36.1.28.06-.08-.09-.24,0-.31v-.11l0-.18,0-.28.11.23.09.24,0,.32.08.29.09.23,0,.28,0,.33.13.29.38.36.19.1.13-.05.16,0,.14.24.12.26h.26l.33.28.06.16,0,.37.1.34.31.17.2.21h.14l0-.15.14,0,.15.17.12.38,0,.34-.05.31-.06.36-.21.31-.1.38.08.29v.12l-.1.1.09.18,0,.1-.06.12.3.5.15.47.08.52.28.45.6.64.53.56.1.18,0,.57,0,.25.1.11v.2l0,.16.15.17V206l0,.16,0,.13.12.1.14.16v.14l-.08.17.1.14.15.12,0,.29.11.22.49.36.16.17.24.17.38,0v-.15l.13-.06-.18-.17h.29v-.08h.45l.24-.15-.18-.21.08-.06.18.08.2-.2.09-.26.34-.1v-.27l.15-.1h.1l-.08-.32.14-.38h.15l.41-.28.45.05v-.17l.14-.07.22,0-.14-.18.19-.3v-.22l.1-.11-.14-.11.14-.33v-.79l.73-.87v-1.14l-.36.06-.84-.69h-.29l-.16-.12-.18-.09h-.07l-.19-.26-.5-.21h-.08l-.29-.7-.3-.06-.15-.5-.39-.38h-.53l-.25-.1-.34-.65-.11-.2-.24-.1.15-.3h-.43l-.21-.07-.16.24-.2-.1-.36,0v-.25h-.12l-.1-.27-.1.06V197h-.07v-.32l-.26.15-.38.23-.17.34-.12.19-.19-.2-.29-.05-.18.2-.18-.2-.14-.29.08-.37.08-.08-.16-.28.17-.18,0-.21h-.2l-.1-.2-.25.1-.25,0v-.08l.15-.34V195l.14-.22v-.39h-.24l-.24.2-.14.47-.25.25-.31-.29-.07-.42v-.87l0-.33.38-.57.26-.11.23.07.18,0,.15-.09,0-.18.13-.06h.21l.3.17.09.29,0,.3.06.12-.1.33.22,0,.15-.31.05-.57-.1-.5.2-.43.25-.25v-.2h.27l0-.19H612l.08-.19.16-.05v-.45l.23-.33V190l.18-.17,0-.2.54-.26.18.06v-.28l-.07.06-.07-.13.43-.42.2-.07.1-.16.3-.14.25.08.31-.08.18-.12h.19l.17-.21h-.12l0-.27-.27.32-.16.05-.15,0h-.1l.06-.07.23-.08-.21-.07-.16,0,.05-.2-.14.12-.09-.12h.16l.14-.18v-.12h-.24l-.54.3-.1,0,.36-.37.56-.25h.37l.29-.06.24,0,.12-.28.74-.3-.11-.18.1-.19h-.17l0-.2-.39-.06-.33-.6-.07-.33h-.1l-.3.35-.22.17-.11,0-.18-.08-.09-.16.13-.2-.22.1-.06-.21h-.2l-.3.1-.1.06-.22,0-.11.16-.13.14v.11h.11l0,.11-.3.23.1,0h.2l-.1.36-.3.33-.28.18,0,.38-.08.19-.08.08-.17,0-.07-.15h.12l0-.24-.11,0-.06-.25.07-.14-.21,0-.11.14-.19-.1h-.1l-.1,0-.18,0-.13.06-.08-.17-.13-.06.28-.41.47-.43.33-.4.42-.32-.27.39.2,0,.3-.27h.2l.13-.13,0-.13h-.21l.13-.19.35-.22h.23l-.08.28.45,0h.22l.19,0,.18.07.29,0,.33-.05.08-.07,0-.11h.27v-.07l0,0,.08-.07,0-.15-.12,0v-.26l.17,0,.16.07.08-.14h.16l.2-.24v-.1h-.12l-.26-.1-.18,0-.13.1,0-.37-.05,0-.13,0h-.28l-.17-.07-.23.07-.14-.14-.53.12L614,183l-.07-.1.39-.1.15-.21.57-.28.14-.21.37-.15.07,0h.22l.33-.27.58-.26.49-.17-.88.09-.8.23h0l-.34.11-.17.12-.28.19-.19.2-.57.2-.25.07-.28.3,0,.08-.32.08-.2.16-.32.16.1.11h.2l.12-.17.41-.14-.32.22-.42.26-.41.15-.12.09.29-.05h.13v.08l-.46.21-.22.23-.2,0-.14.13,0,.12.12,0,.15-.1-.14.33-.27.15h-.27l.06-.44-.23,0a15.53,15.53,0,0,1,22-.88c.18.16.36.34.53.51l-.28-.06L633,184l.14.32-.12,0-.13-.06-.15-.08v.25l-.26-.2h-.3l.14.19h-.24l-.21-.39-.22-.19.36.07.24.05.23-.06v-.18l-.3-.18-.35-.13-.55-.17-.31-.12-.12-.18-.24-.16-.32,0-.27-.08-.06,0h-.7l-.09,0-.25.12-.21-.12h-.24l-.31.14v.11l.31.14-.07.14h-.3l-.17.29-.17.12-.3-.06-.24.18-.41.16,0,.27,0,.18.19.35.47,0,.4-.18.51.62,0,.09-.25,0-.1.07-.05-.19v-.26h-.15l-.15.14h-.22v.18l.1.14,0,.31-.43.14h-.45l.1.18-.09.12-.17.19h-.21l-.12.11,0,0-.13.13-.18.13h-.13l-.21-.13-.11.14v.11l-.21-.09H625l-.08.16.14.11.14.1.13.16.19.2-.13.2v.29l-.08.26-.2,0-.35-.05-.42,0-.13-.13-.22.15-.25.1v.18l.11.52-.25.37.14.15,0,.47.28-.05.25.18.16-.1.5,0,.44,0,.16-.26,0-.26.11-.41.41-.24.28-.26.05-.2h.69l.46-.21.3.18.12.24.24.31.28.15.25.16.16.13.11.18-.11.31.14.08.24-.34-.08-.29.07,0,.2.08,0-.18-.39-.21-.37-.26-.18-.28-.33-.21,0-.3h.3l.23.12.13.28.19.16.22.08.3.25.28.18v.63l.19.13.16.23.08.28.14-.07.19-.36-.19-.34.06-.18.22-.06.3,0,.16.11-.19.2.08.26.22.23.25.28.16.13.3-.13.2.18.16.13.17-.23.22.08.16.18.14.31-.08.21-.33.57-.3,0-.25-.07-.36.1-.22,0-.33-.13-.22.1-.19-.2-.22-.06-.19-.26-.28.06-.22.15v.42l-.33-.08-.27-.13-.3-.05.06-.24-.27-.15-.37-.1h-.33l-.24-.24.24-.2-.08-.21,0-.13.14-.34-.33,0-.6,0-.36.08-.3-.08-.3,0-.52.18-.39.34-.9-.26-.11.31-.22.21-.41.2-.28.33v.31l-.13.47-.28.23-.47.23v.24l-.27.18-.2.23-.27.37-.13.44v.64l.08.37,0,.37-.08.38-.11.26-.11.23v.78l.19.23.39.21.16.1v.6l.25.23.44.13v.18l.36.19.24.23.39-.05.33-.14.24-.07.47.15.43-.15.12-.2.44-.16.27-.08.2.13.08.34.11.29.41-.14.16,0,.2.23.14.31-.17.27-.14.41,0,.34.11.28.22.16.19.18v.65l.14.23.11.28-.11.26,0,.26,0,.24-.16.38-.17.49-.16.7,0,.32.41.83-.11.38,0,.52.22.47.19.33-.08.37.25.18.36-.18.68-.13.44-.18.77-.73.52-.77.3-.42.35-.28v-.39l.2-.62.55-.34.34-.57.21-.57.06-.86-.08-.8.11-.62.49-.59.77-.83.6-.94.17-.54,0-.6h-.93l-.2-.21-.27-.6-.22-.77-.17-.63.36.5.28.52.13.8,1.07-.55,1-1,.42-.77-.14-.39-.41-.29-.12-.31-.27.24-.3-.24.06-.2-.39-.13,0-.18-.16-.26.08-.28.19.15.25.47.38.28.3,0,.09.18.27.18.13.12.48,0,.2.14.1.28.25.37,0,.77.1,1.13Zm-30.42-5.52c.09-.29.18-.57.28-.86-.1.29-.2.57-.28.86m29.44-2-.17.1v.71l.29.17h0v.42l.13.51h0l.4.25h.3l-.3-.61v-.76l-.4-.17h0l-.19-.36.05-.27Z" transform="translate(-606.41 -179.04)"/><path id="Path_8597" data-name="Path 8597" class="cls-1" d="M658.7,196.81l5,1.5a9.08,9.08,0,0,1-1.58,3.51,6.86,6.86,0,0,1-2.68,2.12,10,10,0,0,1-4.08.72,12,12,0,0,1-4.91-.87,7.83,7.83,0,0,1-3.28-3.07,10.47,10.47,0,0,1-1.38-5.63q0-4.58,2.43-7a11,11,0,0,1,12.35-1,8.23,8.23,0,0,1,3,4.32l-5,1.12a4.28,4.28,0,0,0-.56-1.23,3.24,3.24,0,0,0-1.17-1,3.58,3.58,0,0,0-4.51,1.2,6.64,6.64,0,0,0-.78,3.63q0,3.06.93,4.2a3.69,3.69,0,0,0,5.09.22A5.66,5.66,0,0,0,658.7,196.81Zm22.35-8.73a9.27,9.27,0,0,1,2.49,6.92,11.32,11.32,0,0,1-1.09,5.3,7.71,7.71,0,0,1-3.14,3.21,10.34,10.34,0,0,1-5.12,1.15,11.91,11.91,0,0,1-5.16-1,7.83,7.83,0,0,1-3.31-3.14,10.53,10.53,0,0,1-1.27-5.38,8.76,8.76,0,0,1,9.52-9.54q4.59,0,7.08,2.47Zm-3.2,6.84a5.67,5.67,0,0,0-1.05-3.8,3.57,3.57,0,0,0-2.84-1.2,3.47,3.47,0,0,0-2.77,1.22,8.3,8.3,0,0,0,0,8,3.93,3.93,0,0,0,5.55.14,1.14,1.14,0,0,1,.11-.11c.66-.8,1-2.23,1-4.29Zm21.54-7.53a5.52,5.52,0,0,1,1.54,4.19,5.7,5.7,0,0,1-1.68,4.36,7.22,7.22,0,0,1-5.12,1.57H691v6.83h-5.72V185.92h9.47a6.5,6.5,0,0,1,4.63,1.47Zm-4,4.35a2.09,2.09,0,0,0-.58-1.47,3,3,0,0,0-2.17-.6H691v4.11h1.4a3.56,3.56,0,0,0,2.31-.57,1.84,1.84,0,0,0,.66-1.47Zm21.3-4.35a5.52,5.52,0,0,1,1.54,4.19,5.7,5.7,0,0,1-1.68,4.36,7.22,7.22,0,0,1-5.12,1.57h-3.12v6.83h-5.72V185.92h9.47a6.51,6.51,0,0,1,4.62,1.47Zm-4,4.35a2.09,2.09,0,0,0-.58-1.47,3,3,0,0,0-2.17-.6h-1.63v4.11h1.4a3.56,3.56,0,0,0,2.31-.57,1.84,1.84,0,0,0,.66-1.47Zm12.93,4.8h8.85v-3.75h-8.86v-2.93h9.55v-3.94H719.9v18.42h15.53v-4.17h-9.82Zm41.62-10.61,6.92,18.42h-6l-.92-3h-6.47l-.9,3H754.1l.55-1.47-.55,1.47H749l-3-5.63a4.25,4.25,0,0,0-1-1.42,2.34,2.34,0,0,0-1.4-.43H743v7.47h-5.72V185.92h9.49a13.68,13.68,0,0,1,4,.46,4.29,4.29,0,0,1,2.25,1.67,5.2,5.2,0,0,1-1.3,7.24l-.3.2a6.75,6.75,0,0,1-2,.72,3.87,3.87,0,0,1,2.39,1.65,7.62,7.62,0,0,1,.8,1.15l2,3.86,6.37-17Zm-19,5.56a1.67,1.67,0,0,0-.56-1.37,3.44,3.44,0,0,0-2.13-.47H743v3.74h2.4a8.5,8.5,0,0,0,1.51-.25,1.54,1.54,0,0,0,.93-.58,1.71,1.71,0,0,0,.34-1.07Zm17.89,5.83-2-6.62-2,6.62Zm20.88-1.2L780,185.93h-5.32v18.41h5.35V194.23l6.9,10.12h5.37V185.92H787Zm6.57-10.19v4.55h5.8v13.86H805V190.47h5.8v-4.55Z" transform="translate(-606.41 -179.04)"/></g></svg>