<svg id="Layer_1" data-name="Layer 1" xmlns="http://www.w3.org/2000/svg" width="395.99" height="31.12" viewBox="0 0 395.99 31.12"><defs><style>.cls-1{fill:#fff;}</style></defs><g id="Group_9663" data-name="Group 9663"><path id="Path_8596" data-name="Path 8596" class="cls-1" d="M490.39,190.5l0,.3h0l.31.17-.1.09-.25.27-.44-.18-.41-.27h-.38l-.39.08-.27-.18-.2.18-.1-.34h0l.11-.23v-.18l.16-.13.23-.19h.46l.19.27v0h.38l.25.16h.25Zm1.22,13.88-.29.28-.23.39-.31.31-.26.13v.73l-.29.31v.72h.26l.26-.36.18-.26v-.49l.21-.33.08-.35.13-.05v-.2l.26-.18Zm-13.93-19.64.45-.26,0,0,.1-.05.13-.07.14-.07.32,0,.33,0h.25l.18,0,.18-.07.17-.07h-.37l-.06-.12.06-.09.06-.09.13.06.13.07.22,0,.14-.07-.18-.12v0h.18l.08-.1-.1-.11h.51v-.11l.15-.15-.24-.2.24-.17v-.36h.14l.2-.09.12-.06h.15v-.12H481l-.12.05h-.28l-.06.05-.06.05-.25-.11-.69-.28H479l-.22-.06h-.23l-.21,0-.68.1-.6.2-.71.25-1,.2-.63.06-.18.08-.18.08L474,183l-.4.23-.58.28h.21l-1.06.51.49.12.33-.08.33-.08h.39l.18,0,.07.06.06.06v.14l.39-.07.13.13v.15l-.12.15.3-.12.13.12-.31.14-.37.32.21.24.21.24.11.2v.28l0,.24.17,0,.17,0,.09,0,.1,0,.18.07h.37v-.19l.06-.07L476,186l.09-.32.23-.28.14-.12.14-.12.2-.16h.47Zm-4.31,4.49-.13,0,.06-.16h-.12l-.06-.2-.21.09v-.1l-.21,0,.29-.39-.3.12-.65.88h.17l.53-.07v.12h.11l.18-.1-.06.1h.14Zm8.24-2.94-.17.26-.18.19.23.2h.12l-.1.14h.33l.07.3,0,.13-.1,0-.14-.09,0,.14.06.17h-.08l-.14.05.1.08.07.08,0,.1-.12.06-.15.12h.44l.18-.08h.22l.22,0h.32l.26-.24v-.18l-.21-.07-.16-.06-.09-.24-.1-.21-.2-.12-.18-.15.18-.16v-.16l-.19-.09v-.18h-.21Zm-.35,1.37.1,0v-.69h-.45l-.13.21h-.1l-.15.08-.13.12.13.17,0,.08-.08.07.13.16h.4l.06-.16h.27ZM480,185.37l-.15-.08-.07,0-.21-.06h-.51l-.07,0h-.12v-.17l-.16-.24-.13.11-.14,0,.17.1.07.12v.14h-.07l-.12-.11h-.16l.1.11h.08l0,.14,0,.05h.23l.22.23.2.07.33-.07.31.07.21-.3Zm-10.68,11.5-.14-.16-.28-.12-.24.07h-.09l.05.07.07.15V197h-.2l.2.12H469l.34-.07Zm-.89-.27-.5-.5-.15-.11,0,0-.23,0h-.25l-.3.16-.05.1h.14l.07.14h.24l.19-.07.1.29.23.11.16-.11.13.11Zm-.65-.84.14.17,0,0,.17.13h.1v-.17l.13-.07v-.18h-.1l-.09-.14.1,0,0-.22-.22,0v.38H468l0-.42-.12-.05,0,.05Zm16.41-4.59h.33v-.37h-.16V191Zm.8.6h.25l.2.18h.18v-.09l-.18-.09-.13-.18H485Zm2.34.62h.58l-.29-.09-.29-.09Zm1.75.34h.17l.22-.13v-.21h-.19l-.19.17Zm5.54,5.23a15.55,15.55,0,1,1-30.42-5.52l0,.3-.1.6.06.23.2.33.06.14,0,.46,0,.32,0,.12-.07.28.09.2,0,.36.1.28,0-.08-.09-.23,0-.32,0-.11,0-.18,0-.28.11.23.09.24,0,.32.08.29.09.23.05.28,0,.33.13.29.38.36.19.1.13-.05.16,0,.14.24.12.26h.26l.33.29.07.15v.37l.1.34.31.17.2.21h.14l0-.15.14,0,.15.17.12.38,0,.34-.05.31-.06.36-.21.31-.1.38.08.29V202l-.1.1.09.18,0,.1-.06.12.3.51.15.46.08.52.28.45.6.64.53.56.1.18,0,.57,0,.25.1.11v.2l-.05.16.15.17v.46l0,.16,0,.13.13.1.14.16v.14l-.09.17.1.14.15.12,0,.3.11.21.49.36.16.17.24.17.38.05V210l.13-.06-.17-.17h.29v-.07h.44l.24-.16-.18-.21.08-.06.18.08.2-.2.09-.26.34-.1v-.27l.15-.1h.1l-.08-.32.14-.38h.16l.4-.28.45.05v-.17l.14-.07.23,0-.14-.18.19-.3v-.22l.1-.11-.14-.11.14-.33v-.79l.72-.87V203.1l-.36.07-.84-.7h-.28l-.17-.12-.18-.09h-.06l-.2-.26-.5-.21h-.08l-.29-.7-.29-.06-.16-.5-.39-.37h-.53l-.24-.11-.35-.65-.11-.2-.24-.1.15-.3h-.43l-.2-.07-.17.24-.2-.1-.35,0v-.25h-.12l-.1-.27-.1.06v.25l-.08,0v-.33l-.25.16-.39.22-.17.34-.12.19-.19-.2-.29-.05-.18.2-.17-.2-.14-.29.07-.37.08-.08-.15-.28.16-.18,0-.21h-.2l-.1-.2-.24.1-.26,0v-.08l.16-.34,0-.4.14-.22v-.39h-.24l-.24.2-.14.48-.25.24-.31-.29-.07-.41v-.88l.05-.33.38-.57.27-.11.22.07.18,0,.15-.09,0-.18.13-.06h.22l.3.17.09.29,0,.3.06.12-.1.33.22,0,.15-.32.05-.57-.1-.5.2-.43.26-.25v-.2h.26l0-.19h.2l.07-.19.16-.05v-.45l.23-.33,0-.2.17-.17,0-.2.55-.26.17.07v-.29L470,191l-.07-.13.44-.42.2-.07.1-.16.3-.14.24.09.31-.09.18-.12h.19l.17-.21h-.12l0-.27-.27.32-.16.05-.15,0h-.1l.06-.08.23-.08-.2-.06h-.17l0-.2-.13.12-.09-.12h.15l.14-.18v-.11h-.24l-.53.3h-.1l.35-.37.56-.25h.37l.29-.06.24,0,.13-.28.73-.3L473,188l.1-.19H473l0-.2-.38-.05-.33-.6-.08-.33h-.1l-.3.34-.22.17-.11,0-.18-.08-.09-.16.13-.2-.22.1-.06-.2h-.2l-.3.1-.1.05-.21,0-.12.16-.13.14v.11h.12l0,.11-.29.23.1,0H470l-.1.36-.3.33-.28.18,0,.38-.09.19-.08.08-.16,0L469,189h.13l0-.24-.11,0-.05-.25.06-.13-.2,0-.12.14-.19-.1h-.1l-.1,0-.18,0-.12.06-.09-.17-.13-.06.28-.41.47-.43.33-.4.42-.32-.27.4h.2l.3-.27h.2l.13-.13,0-.13h-.21l.13-.19.35-.22h.23l-.08.28.45,0h.23l.19,0,.17.07.3,0,.33-.05.07-.07-.05-.11h.27v-.07l0,0,.07-.07,0-.15-.11,0v-.26l.16,0,.16.07.08-.14h.17l.2-.24v-.1h-.13l-.25-.1-.18,0-.14.1,0-.38,0,0-.13.06h-.28l-.17-.08-.23.08-.14-.15-.53.12-.07-.12-.07-.1.39-.1.15-.21.57-.27.14-.22.37-.15.08,0h.21l.33-.28.59-.26.48-.17-.88.09-.8.23h0l-.34.12-.17.12-.28.18-.19.2-.57.2-.25.07-.28.3,0,.08-.33.08-.2.16-.32.16.1.11h.2l.13-.17.4-.13-.31.21-.42.26-.42.16-.12.08.29-.05h.13v.08l-.45.21-.23.23-.2,0-.14.14,0,.12.12,0,.15-.1-.14.33-.27.15h-.26l.05-.44-.22,0a15.51,15.51,0,0,1,21.94-.88c.18.16.36.34.53.51l-.28,0-.28-.08.14.32-.12,0-.13-.06-.15-.07v.24l-.26-.2h-.3l.15.19h-.25l-.21-.39-.21-.19.36.07.23.05.23-.06v-.18l-.3-.18-.35-.13-.55-.17-.31-.12-.11-.18-.25-.16-.32,0-.27-.08-.06,0h-.7l-.09,0-.24.12-.22-.12h-.23l-.31.15v.1l.31.14L485,185h-.3l-.17.3-.16.12-.3-.07-.25.18-.41.17,0,.26,0,.19.2.34.46,0,.4-.18.51.62,0,.09-.24,0-.1.08-.05-.2v-.25h-.15l-.16.13h-.22v.18l.1.14.05.31-.43.14h-.45l.1.18-.09.12-.16.19H483l-.12.12-.05,0-.13.14-.18.12h-.13l-.21-.12-.11.13v.11l-.21-.08h-.17l-.08.15.14.11.14.1.13.16.2.2-.14.2v.29l-.08.26-.19,0-.36-.05-.41,0-.14-.13-.22.16-.25.1v.18l.11.51-.25.37.14.15.06.47.27-.05.25.18.16-.1.5,0,.44,0,.16-.26,0-.26.11-.41.41-.24.28-.25.05-.21h.69l.47-.21.3.18.11.24.24.31.28.15.26.16.15.13.11.18-.11.31.14.08.24-.34-.08-.28.07,0,.2.08,0-.18-.39-.21-.37-.26-.18-.28-.33-.21,0-.3h.3l.23.12.12.28.2.16.21.08.3.26.28.18v.62l.19.13.16.23.09.28.13-.07.2-.36-.2-.34.06-.18.22,0,.3,0,.16.11-.19.2.09.26.21.23.25.29.17.12.3-.12.19.18.17.13.16-.24.22.08.17.18.13.31-.08.21-.33.57-.3,0-.25-.07-.36.1-.22,0-.33-.13-.22.1-.19-.2-.22-.06-.19-.26-.28.06-.22.15v.42l-.33-.08-.27-.13-.3-.05.06-.24-.27-.15-.37-.1h-.33l-.24-.23.24-.21-.08-.21,0-.13.13-.34-.33,0-.6,0-.36.08-.3-.08-.3,0-.52.18-.38.34-.91-.26-.11.31-.22.21-.41.2-.28.33v.31l-.13.47-.28.23-.46.24v.23l-.28.18-.19.23-.28.37-.13.44v.64l.08.37.05.37-.08.38-.11.26-.11.23v.78l.19.23.39.21.16.1v.6l.25.23.44.13v.18l.36.19.24.23.39-.05.33-.13.25-.08.46.15.43-.15.12-.2.44-.16.28-.08.19.13.08.34.11.29.41-.13.17-.06.19.24.14.31-.17.26-.14.41,0,.34.11.28.22.16.19.18v.65l.14.23.11.28-.11.26.05.26,0,.24-.16.39-.17.48-.16.7.05.32.41.83-.1.39,0,.51.22.47.19.34-.08.36.25.18.37-.18.67-.13.44-.18.77-.73.52-.77.3-.42.36-.28v-.39l.2-.62.55-.34.33-.57.21-.57.06-.85-.08-.8.11-.63.49-.59.77-.83.6-.93.17-.55,0-.6H491l-.19-.21-.28-.6-.22-.77-.17-.63.36.5.28.52.13.8,1.08-.55,1-.95.41-.78-.14-.39-.41-.29-.11-.31-.28.24-.3-.24.06-.2-.39-.13,0-.18-.16-.26.08-.28.19.15.25.47.38.28.3,0,.09.18.27.18.13.12h.48l.2.13.1.28.25.37,0,.77.1,1.13Zm-30.42-5.52c.09-.29.18-.57.29-.85-.1.28-.2.56-.29.85m29.44-2-.17.1v.71l.29.18h0v.43l.13.51h0l.4.25h.3l-.3-.6v-.77l-.4-.17h0l-.19-.36.05-.27Z" transform="translate(-463.57 -181.29)"/><path id="Path_8597" data-name="Path 8597" class="cls-1" d="M515.37,198.56l5,1.5a9.25,9.25,0,0,1-1.59,3.51,6.86,6.86,0,0,1-2.68,2.12,10,10,0,0,1-4.08.72,11.89,11.89,0,0,1-4.9-.87,7.8,7.8,0,0,1-3.29-3.07,10.47,10.47,0,0,1-1.38-5.63q0-4.58,2.43-7a11,11,0,0,1,12.35-1,8.23,8.23,0,0,1,2.95,4.32l-5,1.12a4.41,4.41,0,0,0-.56-1.23,3.29,3.29,0,0,0-1.16-1,3.59,3.59,0,0,0-4.51,1.2,6.47,6.47,0,0,0-.78,3.63q0,3.06.93,4.2a3.68,3.68,0,0,0,5.08.22A5.78,5.78,0,0,0,515.37,198.56Zm22.34-8.73a9.27,9.27,0,0,1,2.49,6.92,11.41,11.41,0,0,1-1.08,5.3,7.77,7.77,0,0,1-3.14,3.21,10.38,10.38,0,0,1-5.13,1.15,11.83,11.83,0,0,1-5.15-1,7.72,7.72,0,0,1-3.31-3.14,10.4,10.4,0,0,1-1.27-5.38,8.7,8.7,0,0,1,7.82-9.53,8,8,0,0,1,1.69,0q4.61,0,7.08,2.46Zm-3.2,6.84a5.66,5.66,0,0,0-1-3.8,3.59,3.59,0,0,0-2.85-1.2,3.47,3.47,0,0,0-2.77,1.22,8.32,8.32,0,0,0,0,8,3.93,3.93,0,0,0,5.55.14l.11-.11c.67-.8,1-2.23,1-4.29Zm21.54-7.53a5.52,5.52,0,0,1,1.54,4.19,5.69,5.69,0,0,1-1.68,4.36,7.22,7.22,0,0,1-5.12,1.57h-3.12v6.83H542V187.67h9.46a6.55,6.55,0,0,1,4.63,1.47Zm-4,4.35a2.08,2.08,0,0,0-.57-1.47,3,3,0,0,0-2.18-.6h-1.63v4.11h1.4a3.56,3.56,0,0,0,2.31-.57,1.84,1.84,0,0,0,.67-1.47Zm21.3-4.35a5.52,5.52,0,0,1,1.54,4.19,5.69,5.69,0,0,1-1.68,4.36,7.22,7.22,0,0,1-5.12,1.57H565v6.83h-5.71V187.67h9.46a6.55,6.55,0,0,1,4.63,1.47Zm-4,4.35a2,2,0,0,0-.57-1.47,3,3,0,0,0-2.18-.6H565v4.11h1.4a3.56,3.56,0,0,0,2.31-.57,1.84,1.84,0,0,0,.66-1.47Zm12.93,4.8h8.86v-3.75h-8.87v-2.93h9.55v-3.93H576.56v18.41h15.53v-4.17h-9.82Zm41.62-10.61,6.92,18.42h-6l-.92-3h-6.46l-.9,3h-5.82l.56-1.47-.56,1.47h-5.12l-3-5.63a4.25,4.25,0,0,0-1-1.42,2.34,2.34,0,0,0-1.4-.43h-.5v7.47H594V187.67h9.49a14,14,0,0,1,4,.46,4.29,4.29,0,0,1,2.25,1.67,5.2,5.2,0,0,1-1.3,7.24,2.23,2.23,0,0,1-.3.2,7.06,7.06,0,0,1-2,.73,3.81,3.81,0,0,1,2.39,1.64,6.41,6.41,0,0,1,.8,1.15l2,3.87,6.37-17Zm-19,5.56a1.7,1.7,0,0,0-.57-1.37,3.43,3.43,0,0,0-2.12-.47h-2.5v3.74h2.4a8.39,8.39,0,0,0,1.5-.25,1.54,1.54,0,0,0,.93-.58,1.72,1.72,0,0,0,.35-1.07Zm17.89,5.83-2-6.62-2,6.62Zm20.87-1.2-6.93-10.19h-5.33v18.41h5.36V196l6.9,10.12H649V187.68h-5.36Zm6.57-10.19v4.55H656v13.86h5.69V192.22h5.8v-4.54Z" transform="translate(-463.57 -181.29)"/><g id="Artwork_82" data-name="Artwork 82"><path id="Path_8615" data-name="Path 8615" class="cls-1" d="M687.16,191.89a5.63,5.63,0,0,1,2.55.54,5,5,0,0,1,1.92,1.83h.08c-.05-1-.08-2.08-.08-3.08v-4.89h1.23v19.43H692l-.31-2.07h-.1a5,5,0,0,1-4.44,2.32,5.34,5.34,0,0,1-4.3-1.75,7.68,7.68,0,0,1-1.49-5.09,8.49,8.49,0,0,1,1.48-5.38A5.11,5.11,0,0,1,687.16,191.89Zm0,1.12a3.87,3.87,0,0,0-3.34,1.56,7.71,7.71,0,0,0-1.11,4.54q0,5.76,4.48,5.76a4.05,4.05,0,0,0,3.37-1.33,7.06,7.06,0,0,0,1.07-4.41v-.21a7.5,7.5,0,0,0-1-4.53,4,4,0,0,0-3.42-1.38Z" transform="translate(-463.57 -181.29)"/><path id="Path_8616" data-name="Path 8616" class="cls-1" d="M702.25,206a5.93,5.93,0,0,1-4.61-1.82A7.39,7.39,0,0,1,696,199a8,8,0,0,1,1.6-5.2,5.27,5.27,0,0,1,4.31-2,4.63,4.63,0,0,1,3.78,1.67,7,7,0,0,1,1.39,4.55v1h-9.78a6.45,6.45,0,0,0,1.3,4.27,4.6,4.6,0,0,0,3.66,1.47,11.73,11.73,0,0,0,2-.16,13,13,0,0,0,2.22-.7v1.12a9.2,9.2,0,0,1-2.12.68A11.08,11.08,0,0,1,702.25,206Zm-.36-13a4.06,4.06,0,0,0-3.14,1.29,6,6,0,0,0-1.39,3.73h8.39a5.9,5.9,0,0,0-1-3.69,3.38,3.38,0,0,0-2.84-1.33Z" transform="translate(-463.57 -181.29)"/><path id="Path_8617" data-name="Path 8617" class="cls-1" d="M726.76,192.15V193l-2.81.18a4.79,4.79,0,0,1,1.12,3.07,4.1,4.1,0,0,1-1.3,3.18,4.92,4.92,0,0,1-3.5,1.21,7.09,7.09,0,0,1-1.3-.07,3.19,3.19,0,0,0-1.12.91,1.87,1.87,0,0,0-.39,1.11,1.05,1.05,0,0,0,.49,1,3.39,3.39,0,0,0,1.66.3H722a5.52,5.52,0,0,1,3.38.89,3.09,3.09,0,0,1,1.18,2.64,3.76,3.76,0,0,1-1.74,3.32,8.9,8.9,0,0,1-5,1.17,6.81,6.81,0,0,1-4-1,3.17,3.17,0,0,1-1.4-2.75,3.23,3.23,0,0,1,.87-2.32,4.48,4.48,0,0,1,2.35-1.26,2.46,2.46,0,0,1-1-.74,1.82,1.82,0,0,1-.37-1.1,2.91,2.91,0,0,1,1.74-2.4,3.9,3.9,0,0,1-1.85-1.53,4.74,4.74,0,0,1,.63-5.66,4.91,4.91,0,0,1,3.49-1.23,6.58,6.58,0,0,1,2.07.27Zm-11,15.87c0,1.86,1.39,2.8,4.16,2.8q5.34,0,5.34-3.41a2,2,0,0,0-.83-1.77,5.09,5.09,0,0,0-2.71-.55h-2.22C717,205.09,715.77,206.06,715.77,208Zm1-11.64a3.1,3.1,0,0,0,1,2.44,4.28,4.28,0,0,0,5.16,0,3.27,3.27,0,0,0,.9-2.5,3.34,3.34,0,0,0-.93-2.6,3.63,3.63,0,0,0-2.6-.87,3.44,3.44,0,0,0-2.55.93,3.49,3.49,0,0,0-.93,2.59Z" transform="translate(-463.57 -181.29)"/><path id="Path_8618" data-name="Path 8618" class="cls-1" d="M734.25,191.89a10.44,10.44,0,0,1,1.85.17l-.24,1.19a7.5,7.5,0,0,0-1.76-.21,3.43,3.43,0,0,0-2.85,1.47,6,6,0,0,0-1.11,3.72v7.49H728.9V192.15H730l.13,2.45h.08a5.68,5.68,0,0,1,1.79-2.1A4.22,4.22,0,0,1,734.25,191.89Z" transform="translate(-463.57 -181.29)"/><path id="Path_8619" data-name="Path 8619" class="cls-1" d="M749.44,198.92a7.71,7.71,0,0,1-1.61,5.19,5.57,5.57,0,0,1-4.45,1.86,5.7,5.7,0,0,1-3.14-.86,5.52,5.52,0,0,1-2.09-2.47,9.15,9.15,0,0,1-.73-3.72,7.62,7.62,0,0,1,1.62-5.18,5.56,5.56,0,0,1,4.42-1.85,5.43,5.43,0,0,1,4.38,1.88A7.7,7.7,0,0,1,749.44,198.92Zm-10.72,0a6.9,6.9,0,0,0,1.23,4.36,4.65,4.65,0,0,0,6.56.4,5,5,0,0,0,.4-.4,8.31,8.31,0,0,0,0-8.72,4.23,4.23,0,0,0-3.49-1.55,4.17,4.17,0,0,0-3.47,1.54A7,7,0,0,0,738.72,198.92Z" transform="translate(-463.57 -181.29)"/><path id="Path_8620" data-name="Path 8620" class="cls-1" d="M758,206a5.9,5.9,0,0,1-4.61-1.82,7.35,7.35,0,0,1-1.66-5.11,8,8,0,0,1,1.6-5.2,5.28,5.28,0,0,1,4.31-2,4.63,4.63,0,0,1,3.78,1.67,6.91,6.91,0,0,1,1.39,4.55v1h-9.78a6.45,6.45,0,0,0,1.3,4.27,4.6,4.6,0,0,0,3.66,1.47,11.73,11.73,0,0,0,2.05-.16,13.3,13.3,0,0,0,2.22-.7v1.12a9.36,9.36,0,0,1-2.12.68A10.92,10.92,0,0,1,758,206Zm-.36-13a4.07,4.07,0,0,0-3.15,1.29,6.09,6.09,0,0,0-1.38,3.73h8.39a6,6,0,0,0-1-3.69,3.37,3.37,0,0,0-2.83-1.33Z" transform="translate(-463.57 -181.29)"/><path id="Path_8621" data-name="Path 8621" class="cls-1" d="M775.42,205.72v-8.8a4.31,4.31,0,0,0-.87-3,3.44,3.44,0,0,0-2.67-.93,4.59,4.59,0,0,0-3.56,1.23,5.76,5.76,0,0,0-1.13,4v7.49H766V192.15h1l.24,1.86h.07c.89-1.41,2.45-2.12,4.71-2.12q4.62,0,4.62,5v8.87Z" transform="translate(-463.57 -181.29)"/><path id="Path_8622" data-name="Path 8622" class="cls-1" d="M788.81,202.19a3.23,3.23,0,0,1-1.38,2.8,6.82,6.82,0,0,1-3.94,1,9.35,9.35,0,0,1-4.32-.84V203.8a9.66,9.66,0,0,0,4.32,1,5.63,5.63,0,0,0,3.06-.67,2,2,0,0,0,1-1.78,2.18,2.18,0,0,0-.83-1.72,9.1,9.1,0,0,0-2.73-1.37,15.88,15.88,0,0,1-2.86-1.27,3.84,3.84,0,0,1-1.24-1.2,3,3,0,0,1-.42-1.63,2.8,2.8,0,0,1,1.28-2.41,6.25,6.25,0,0,1,3.58-.89,10.85,10.85,0,0,1,4.17.83l-.47,1.12a9.86,9.86,0,0,0-3.7-.82,5.37,5.37,0,0,0-2.64.55,1.68,1.68,0,0,0-1,1.52,2.1,2.1,0,0,0,.75,1.7,10.23,10.23,0,0,0,3,1.42,14.54,14.54,0,0,1,2.67,1.2,3.87,3.87,0,0,1,1.25,1.2A2.88,2.88,0,0,1,788.81,202.19Z" transform="translate(-463.57 -181.29)"/><path id="Path_8623" data-name="Path 8623" class="cls-1" d="M795.25,204.87a9.38,9.38,0,0,0,2-.2v1a6.61,6.61,0,0,1-2.07.3,3.41,3.41,0,0,1-2.66-1,4.48,4.48,0,0,1-.85-3v-8.77h-2v-.72l2-.56.62-3.08H793v3.29h4v1.07h-4v8.59a3.89,3.89,0,0,0,.55,2.31A2,2,0,0,0,795.25,204.87Z" transform="translate(-463.57 -181.29)"/><path id="Path_8624" data-name="Path 8624" class="cls-1" d="M805.08,206a5.94,5.94,0,0,1-4.62-1.82,7.34,7.34,0,0,1-1.65-5.11,7.92,7.92,0,0,1,1.6-5.2,5.27,5.27,0,0,1,4.31-2,4.63,4.63,0,0,1,3.78,1.67,7,7,0,0,1,1.38,4.55v1h-9.77a6.45,6.45,0,0,0,1.3,4.27,4.6,4.6,0,0,0,3.66,1.47,11.54,11.54,0,0,0,2-.16,13.13,13.13,0,0,0,2.23-.7v1.12a9.36,9.36,0,0,1-2.12.68A11,11,0,0,1,805.08,206Zm-.37-13a4.06,4.06,0,0,0-3.14,1.29,6,6,0,0,0-1.39,3.73h8.39a5.9,5.9,0,0,0-1-3.69,3.38,3.38,0,0,0-2.84-1.33Z" transform="translate(-463.57 -181.29)"/><path id="Path_8625" data-name="Path 8625" class="cls-1" d="M822,205.72l-5.24-13.57H818l3.51,9.23a28.25,28.25,0,0,1,1,3.1h.08c.34-1.14.69-2.18,1-3.12l3.51-9.2h1.28l-5.25,13.57Z" transform="translate(-463.57 -181.29)"/><path id="Path_8626" data-name="Path 8626" class="cls-1" d="M835.57,206a5.9,5.9,0,0,1-4.61-1.82A7.35,7.35,0,0,1,829.3,199a8,8,0,0,1,1.6-5.2,5.27,5.27,0,0,1,4.31-2,4.63,4.63,0,0,1,3.78,1.67,6.91,6.91,0,0,1,1.39,4.55v1H830.6a6.45,6.45,0,0,0,1.3,4.27,4.59,4.59,0,0,0,3.66,1.47,11.54,11.54,0,0,0,2-.16,13.13,13.13,0,0,0,2.23-.7v1.12a9.36,9.36,0,0,1-2.12.68A11,11,0,0,1,835.57,206Zm-.36-13a4.07,4.07,0,0,0-3.15,1.29,6.1,6.1,0,0,0-1.39,3.73h8.39a5.9,5.9,0,0,0-1-3.69,3.37,3.37,0,0,0-2.83-1.33Z" transform="translate(-463.57 -181.29)"/><path id="Path_8627" data-name="Path 8627" class="cls-1" d="M848.83,191.89a10.24,10.24,0,0,1,1.84.17l-.23,1.19a7.5,7.5,0,0,0-1.76-.21,3.43,3.43,0,0,0-2.85,1.47,6,6,0,0,0-1.11,3.72v7.49h-1.24V192.15h1l.13,2.45h.08a5.68,5.68,0,0,1,1.79-2.1A4.22,4.22,0,0,1,848.83,191.89Z" transform="translate(-463.57 -181.29)"/><path id="Path_8628" data-name="Path 8628" class="cls-1" d="M857.84,193.22h-3.2v12.5H853.4v-12.5h-2.52v-.72l2.52-.46v-1a5.9,5.9,0,0,1,.92-3.66,3.55,3.55,0,0,1,3-1.17,7.49,7.49,0,0,1,2.25.34l-.29,1.07a6.66,6.66,0,0,0-2-.31,2.35,2.35,0,0,0-2.06.85,4.91,4.91,0,0,0-.6,2.78v1.26h3.2Z" transform="translate(-463.57 -181.29)"/></g></g></svg>