<svg xmlns="http://www.w3.org/2000/svg" viewBox="0 0 24 16"><rect width="24" height="16" fill="#003399"/><polygon points="12.0,1.95 12.247,2.66 12.999,2.676 12.399,3.13 12.617,3.849 12.0,3.42 11.383,3.849 11.601,3.13 11.001,2.676 11.753,2.66" fill="#FFCC00"/><polygon points="14.5,2.62 14.747,3.33 15.499,3.345 14.899,3.8 15.117,4.519 14.5,4.09 13.883,4.519 14.101,3.8 13.501,3.345 14.253,3.33" fill="#FFCC00"/><polygon points="16.33,4.45 16.577,5.16 17.329,5.176 16.73,5.63 16.947,6.349 16.33,5.92 15.713,6.349 15.931,5.63 15.332,5.176 16.083,5.16" fill="#FFCC00"/><polygon points="17.0,6.95 17.247,7.66 17.999,7.676 17.399,8.13 17.617,8.849 17.0,8.42 16.383,8.849 16.601,8.13 16.001,7.676 16.753,7.66" fill="#FFCC00"/><polygon points="16.33,9.45 16.577,10.16 17.329,10.176 16.73,10.63 16.947,11.349 16.33,10.92 15.713,11.349 15.931,10.63 15.332,10.176 16.083,10.16" fill="#FFCC00"/><polygon points="14.5,11.28 14.747,11.99 15.499,12.006 14.899,12.46 15.117,13.18 14.5,12.75 13.883,13.18 14.101,12.46 13.501,12.006 14.253,11.99" fill="#FFCC00"/><polygon points="12.0,11.95 12.247,12.66 12.999,12.676 12.399,13.13 12.617,13.849 12.0,13.42 11.383,13.849 11.601,13.13 11.001,12.676 11.753,12.66" fill="#FFCC00"/><polygon points="9.5,11.28 9.747,11.99 10.499,12.006 9.899,12.46 10.117,13.18 9.5,12.75 8.883,13.18 9.101,12.46 8.501,12.006 9.253,11.99" fill="#FFCC00"/><polygon points="7.67,9.45 7.917,10.16 8.668,10.176 8.069,10.63 8.287,11.349 7.67,10.92 7.053,11.349 7.27,10.63 6.671,10.176 7.423,10.16" fill="#FFCC00"/><polygon points="7.0,6.95 7.247,7.66 7.999,7.676 7.399,8.13 7.617,8.849 7.0,8.42 6.383,8.849 6.601,8.13 6.001,7.676 6.753,7.66" fill="#FFCC00"/><polygon points="7.67,4.45 7.917,5.16 8.668,5.176 8.069,5.63 8.287,6.349 7.67,5.92 7.053,6.349 7.27,5.63 6.671,5.176 7.423,5.16" fill="#FFCC00"/><polygon points="9.5,2.62 9.747,3.33 10.499,3.345 9.899,3.8 10.117,4.519 9.5,4.09 8.883,4.519 9.101,3.8 8.501,3.345 9.253,3.33" fill="#FFCC00"/></svg>